<?xml version="1.0" encoding="iso-8859-1"?>
<!-- Generator: Adobe Illustrator 19.0.0, SVG Export Plug-In . SVG Version: 6.00 Build 0)  -->
<svg version="1.1" id="Layer_1" xmlns="http://www.w3.org/2000/svg" xmlns:xlink="http://www.w3.org/1999/xlink" x="0px" y="0px"
	 viewBox="0 0 512.026 512.026" style="enable-background:new 0 0 512.026 512.026;" xml:space="preserve">
<g>
	<g>
		<g>
			<path d="M511.616,455.778l-20.501-71.744C503.893,364.92,512,334.562,512,298.701c0-60.821-22.933-106.667-53.333-106.667h-7.701
				l18.027-72.107c0.192-0.725,0.256-1.493,0.277-2.24c0-0.107,0.064-0.213,0.064-0.32c0-0.043-0.021-0.064-0.021-0.107V74.68
				c0-17.643-14.357-32-32-32h-42.667c-17.643,0-32,14.357-32,32v42.667c0,0.875,0.107,1.728,0.32,2.581l18.027,72.085h-39.659v-32
				c0-17.643-14.357-32-32-32c-17.643,0-32,14.357-32,32v32h-42.667V106.68h10.667c5.888,0,10.667-4.779,10.667-10.667V74.68
				c0-17.643-14.357-32-32-32H53.333c-17.643,0-32,14.357-32,32v21.333c0,5.888,4.779,10.667,10.667,10.667h10.667v192H21.333
				v-10.667c0-5.888-4.779-10.667-10.667-10.667S0,282.125,0,288.013v85.333c0,5.888,4.779,10.667,10.667,10.667
				s10.667-4.779,10.667-10.667V362.68h22.421c4.395,21.504,21.888,38.187,44.331,41.792c9.237,37.163,42.624,64.875,82.581,64.875
				c39.659,0,72.768-27.285,82.304-64h25.451c5.227,36.096,36.075,64,73.579,64c31.552,0,58.432-19.712,69.355-47.424l4.779,7.168
				c16.789,25.195,44.907,40.256,75.2,40.256c3.349,0,6.507-1.579,8.533-4.224C511.893,462.456,512.533,459,511.616,455.778z
				 M42.667,341.346H21.333v-21.333h21.333V341.346z M383.979,74.68c0-5.888,4.779-10.667,10.667-10.667h42.667
				c5.888,0,10.667,4.779,10.667,10.667v32h-64V74.68z M444.992,128.013l-16,64h-26.005l-16-64H444.992z M298.667,160.013
				c0-5.888,4.779-10.667,10.667-10.667S320,154.125,320,160.013v32h-21.333V160.013z M42.667,85.346V74.68
				c0-5.888,4.779-10.667,10.667-10.667H224c5.888,0,10.667,4.779,10.667,10.667v10.667H42.667z M170.667,448.013
				c-35.285,0-64-28.715-64-64c0-35.285,28.715-64,64-64s64,28.715,64,64C234.667,419.298,205.952,448.013,170.667,448.013z
				 M352,448.013c-29.397,0-53.333-23.936-53.333-53.333s23.936-53.333,53.333-53.333s53.333,23.936,53.333,53.333
				S381.397,448.013,352,448.013z M400.917,338.722c-13.141-11.499-30.123-18.709-48.917-18.709c-37.525,0-68.352,27.904-73.579,64
				H256c0-47.061-38.272-85.333-85.333-85.333c-46.4,0-84.096,37.269-85.141,83.435C73.045,377.741,64,365.986,64,352.013V106.68
				h149.333v96c0,5.888,4.779,10.667,10.667,10.667h149.333c13.056,0,32,33.237,32,85.333
				C405.333,312.632,403.733,326.264,400.917,338.722z M443.883,417.293l-7.936-11.947h22.741c5.312,0,10.283-1.856,15.061-4.501
				l13.035,45.632C469.376,442.744,453.973,432.397,443.883,417.293z M458.667,384.013h-33.088
				c-1.28-8.875-4.139-17.173-8.277-24.768c6.037-17.963,9.344-38.699,9.344-60.565c0-35.861-8.107-66.219-20.885-85.333h52.885
				c13.056,0,32,33.237,32,85.333S471.723,384.013,458.667,384.013z"/>
			<path d="M170.667,341.346c-23.531,0-42.667,19.136-42.667,42.667c0,23.531,19.136,42.667,42.667,42.667
				c23.531,0,42.667-19.136,42.667-42.667C213.333,360.482,194.197,341.346,170.667,341.346z M170.667,405.346
				c-11.755,0-21.333-9.579-21.333-21.333c0-11.755,9.579-21.333,21.333-21.333c11.755,0,21.333,9.579,21.333,21.333
				C192,395.768,182.421,405.346,170.667,405.346z"/>
			<path d="M181.333,128.013H96c-5.888,0-10.667,4.779-10.667,10.667v85.333c0,5.888,4.779,10.667,10.667,10.667h85.333
				c5.888,0,10.667-4.779,10.667-10.667V138.68C192,132.792,187.221,128.013,181.333,128.013z M170.667,213.346h-64v-64h64V213.346z
				"/>
			<path d="M352,362.68c-17.643,0-32,14.357-32,32s14.357,32,32,32c17.643,0,32-14.357,32-32S369.643,362.68,352,362.68z
				 M352,405.346c-5.888,0-10.667-4.779-10.667-10.667s4.779-10.667,10.667-10.667s10.667,4.779,10.667,10.667
				S357.888,405.346,352,405.346z"/>
		</g>
	</g>
</g>
<g>
</g>
<g>
</g>
<g>
</g>
<g>
</g>
<g>
</g>
<g>
</g>
<g>
</g>
<g>
</g>
<g>
</g>
<g>
</g>
<g>
</g>
<g>
</g>
<g>
</g>
<g>
</g>
<g>
</g>
</svg>
